<?xml version="1.0" encoding="UTF-8"?>
<!-- Generated by Pixelmator Pro 3.5.11 -->
<svg width="324" height="311" viewBox="0 0 324 311" xmlns="http://www.w3.org/2000/svg">
    <g id="g-">
        <path id="path1" fill="#1c5a3f" stroke="none" d="M 44.960007 206.339996 L 38.880005 174.270004 L 56.020004 166.100006 L 56.020004 185.049988 L 44.960007 206.339996 Z"/>
        <path id="path2" fill="#8b6651" stroke="none" d="M 43.839996 177.5 L 60.460007 182.450012 L 56.020004 166.100006 L 48.679993 166.179993 L 43.839996 177.5 Z M 219.980011 133.580002 L 228.790009 131.910004 L 238.829987 126.389999 L 249.98999 106.789993 L 231.380005 111.679993 L 219.899994 123.199997 L 219.980011 133.580002 Z"/>
        <path id="path3" fill="#267a56" stroke="none" d="M 291.23999 83.27002 L 288.230011 82.51001 L 272.299988 92.889999 L 266.200012 95.600006 L 261.390015 105.610001 L 250.829987 106.220001 L 249.73999 110.619995 L 238.630005 118.679993 L 232.600006 118.929993 L 222.230011 126.119995 L 230.579987 130.419998 L 252.299988 112.300003 L 264.390015 110.330002 L 271.149994 98.259995 L 291.23999 83.27002 Z"/>
        <path id="path4" fill="#47ad82" stroke="none" d="M 238.26001 121.539993 L 249.73999 110.619995 L 250.829987 106.220001 L 232.600006 118.929993 L 238.26001 121.539993 Z"/>
        <path id="path5" fill="#54b08b" stroke="none" d="M 288.660004 83.529999 L 291.23999 83.27002 L 288.100006 81.720001 L 266.200012 95.600006 L 271.790009 95.639999 L 288.660004 83.529999 Z"/>
        <path id="path6" fill="#dfbda5" stroke="none" d="M 218.940002 114.380005 L 232.029999 104.479996 L 249.75 103.779999 L 250.829987 106.220001 L 244.98999 110.220001 L 236.940002 111.710007 L 232.600006 118.929993 L 227.440002 122.509995 L 219.899994 123.199997 L 218.940002 114.380005 Z"/>
        <path id="path7" fill="#c3987b" stroke="none" d="M 258.140015 111.350006 L 244.220001 132.550003 L 228.790009 131.910004 L 250.829987 106.220001 L 258.140015 111.350006 Z"/>
        <path id="path8" fill="#237250" stroke="none" d="M 138.809998 286.230011 L 138.809998 297 L 152.100006 292.890015 L 159.660004 287.160004 L 162.119995 277.459991 L 138.809998 286.230011 Z M 81.700012 276.549988 L 77.710007 297.049988 L 89.220001 297 L 100.75 292.059998 L 102.579987 284.929993 L 81.700012 276.549988 Z"/>
        <path id="path9" fill="#47ad82" stroke="none" d="M 159.660004 287.160004 L 138.809998 297 L 138.809998 302.589996 L 156.48999 304.070007 L 178.200012 302.589996 L 159.660004 287.160004 Z"/>
        <path id="path10" fill="#267a56" stroke="none" d="M 138.809998 302.589996 L 178.209991 302.589996 L 178.209991 307.910004 L 138.809998 307.910004 Z"/>
        <path id="path11" fill="#47ad82" stroke="none" d="M 100.75 292.059998 L 104.980011 305.540009 L 91.339996 308.200012 L 75.779999 305.540009 L 77.710007 297.049988 L 100.75 292.059998 Z"/>
        <path id="path12" fill="#267a56" stroke="none" d="M 75.779999 305.540009 L 104.980011 305.540009 L 104.980011 310.859985 L 75.779999 310.859985 Z"/>
        <path id="path13" fill="#738d57" stroke="none" d="M 101.899994 137.589996 L 94.070007 136.410004 L 73.419998 134.25 L 100.98999 156.490005 L 102.929993 163.029999 L 115.51001 188.630005 L 132.440002 172.119995 L 101.899994 137.589996 Z"/>
        <path id="path14" fill="#446125" stroke="none" d="M 91.339996 166.970001 L 100.450012 182.959991 L 109.98999 187.23999 L 116.869995 177.449997 L 102.929993 153.190002 L 91.339996 166.970001 Z"/>
        <path id="path15" fill="#738d57" stroke="none" d="M 178.299988 158.190002 L 137.649994 217.970001 L 116.869995 177.449997 L 100.450012 182.959991 L 67.559998 275.170013 L 111.73999 292.329987 L 181.299988 267.730011 L 178.299988 158.190002 Z"/>
        <path id="path16" fill="#99c26d" stroke="none" d="M 149.859985 186.73999 L 132.440002 172.119995 L 116.869995 177.449997 L 112.089996 289.230011 L 154.179993 200.309998 L 149.859985 186.73999 Z M 73.419998 134.25 L 56.020004 166.100006 L 81.600006 179.130005 L 95.070007 145.509995 L 73.419998 134.25 Z"/>
        <path id="path17" fill="#738d57" stroke="none" d="M 56.020004 166.100006 L 67.580002 185.049988 L 75.669998 180.690002 L 93.790009 147.320007 L 56.020004 166.100006 Z"/>
        <path id="path18" fill="#5a753d" stroke="none" d="M 93.790009 147.320007 L 71.490005 169.289993 L 62.889999 167.520004 L 55.380005 175.850006 L 54.809998 202.100006 L 64.889999 188.359985 L 80.309998 191.619995 L 102.929993 153.190002 L 98.799988 148.419998 L 93.790009 147.320007 Z"/>
        <path id="path19" fill="#89909b" stroke="none" d="M 187.25 74.77002 L 165.350006 79 L 166.809998 89.949997 L 169.049988 103.229996 L 180.119995 95.520004 L 187.25 74.77002 Z"/>
        <path id="path20" fill="#dddfe2" stroke="none" d="M 162.76001 64.669983 L 168.820007 81.130005 L 187.25 74.77002 L 162.76001 64.669983 Z"/>
        <path id="path21" fill="#89909b" stroke="none" d="M 171.390015 117.130005 L 175.649994 120.600006 L 184.640015 122.440002 L 192.48999 105.690002 L 179.980011 109.880005 L 171.390015 117.130005 Z"/>
        <path id="path22" fill="#bbbfc6" stroke="none" d="M 180.119995 95.520004 L 165.350006 95.520004 L 171.390015 117.130005 L 192.48999 105.690002 L 180.119995 95.520004 Z M 89.190002 109.880005 L 71.110001 114.830002 L 65.839996 128.630005 L 76.720001 130.630005 L 90.609985 118.860001 L 89.190002 109.880005 Z"/>
        <path id="path23" fill="#89909b" stroke="none" d="M 86.850006 97.259995 L 61.720001 103.860001 L 71.110001 114.830002 L 88.209991 118.059998 L 93.190002 109.880005 L 86.850006 97.259995 Z"/>
        <path id="path24" fill="#dddfe2" stroke="none" d="M 86.920013 79.169983 L 81.950012 80.25 L 78.160004 75.410004 L 61.720001 103.860001 L 87.410004 100.309998 L 86.920013 79.169983 Z"/>
        <path id="path25" fill="#89909b" stroke="none" d="M 101.130005 121.800003 L 65.839996 128.630005 L 73.419998 134.25 L 103.709991 129.289993 L 101.130005 121.800003 Z M 165.899994 64.450012 L 165.950012 64.669983 L 165.929993 64.450012 L 165.899994 64.450012 Z"/>
        <path id="path26" fill="#738d57" stroke="none" d="M 223.26001 144.820007 L 213.329987 117.259995 L 198.559998 124.830002 L 186.809998 139.690002 L 184.369995 154.389999 L 223.26001 144.820007 Z"/>
        <path id="path27" fill="#99c26d" stroke="none" d="M 171.390015 117.130005 L 169.579987 134.529999 L 188.730011 150.289993 L 198.559998 124.830002 L 171.390015 117.130005 Z"/>
        <path id="path28" fill="#5a753d" stroke="none" d="M 174.299988 157.809998 L 201.399994 161.949997 L 218.829987 147.509995 L 219.859985 141.779999 L 188.730011 150.289993 L 174.299988 135 L 151.190002 111.119995 L 174.299988 157.809998 Z"/>
        <path id="path29" fill="#267a56" stroke="none" d="M 218.940002 114.380005 L 213.329987 117.259995 L 219.859985 141.779999 L 201.399994 161.949997 L 207.220001 162.809998 L 227.059998 143.330002 L 218.940002 114.380005 Z"/>
        <path id="path30" fill="#738d57" stroke="none" d="M 164.160004 161.270004 L 174.299988 157.809998 L 169.25 147.509995 L 164.160004 161.270004 Z"/>
        <path id="path31" fill="#54b08b" stroke="none" d="M 132.440002 172.119995 L 133.769989 172.960007 L 132.440002 172.119995 Z"/>
        <path id="path32" fill="#267a56" stroke="none" d="M 165.619995 147.699997 L 160.5 161.529999 L 160.019989 162.690002 L 164.160004 161.270004 L 169.25 147.509995 L 167.309998 143.559998 L 165.619995 147.699997 Z M 149.859985 108.029999 L 149.820007 107.940002 L 149.649994 108.050003 L 149.859985 108.029999 Z"/>
        <path id="path33" fill="#dfbda5" stroke="none" d="M 172.950012 105.190002 L 159.859985 28.73999 L 138.089996 11.970001 L 124.279999 23.649994 L 95.600006 21.76001 L 90.609985 26.309998 L 100.98999 46.570007 L 117.899994 120.130005 L 145.049988 112.789993 L 172.950012 105.190002 Z"/>
        <path id="path34" fill="#eeeff1" stroke="none" d="M 138.089996 16.330017 L 159.859985 28.73999 L 146.880005 11.419983 L 136.209991 8.290009 L 133.959991 11.970001 L 138.089996 16.330017 Z"/>
        <path id="path35" fill="#dddfe2" stroke="none" d="M 136.209991 8.290009 L 114.26001 1.850006 L 114.779999 18.209991 L 126.619995 28.73999 L 138.089996 16.330017 L 136.209991 8.290009 Z"/>
        <path id="path36" fill="#bbbfc6" stroke="none" d="M 93.359985 18.209991 L 93.589996 20.779999 L 95.359985 22.23999 L 126.579987 28.779999 L 126.619995 28.73999 L 114.26001 1.850006 L 93.359985 18.209991 Z"/>
        <path id="path37" fill="#c3987b" stroke="none" d="M 112.970001 52.27002 L 141.200012 81.130005 L 139.769989 56.549988 L 129.369995 46.51001 L 138.179993 44.959991 L 142.720001 57.609985 L 146.920013 64.600006 L 152.809998 43.679993 L 146.269989 40.869995 L 141.019989 41.839996 L 138.179993 44.959991 L 129.369995 46.51001 L 124.279999 44.029999 L 117.899994 46.570007 L 112.970001 52.27002 Z M 103.410004 35.089996 L 95.600006 21.76001 L 78.160004 43.529999 L 89.190002 51.140015 L 80.529999 70.669983 L 73.419998 73.299988 L 79.269989 90.350006 L 85.279999 88.839996 L 89.190002 89.630005 L 87.410004 100.309998 L 89.190002 109.880005 L 112.970001 126.949997 L 119.519989 120.130005 L 103.410004 35.089996 Z"/>
        <path id="path38" fill="#8b6651" stroke="none" d="M 85.279999 88.839996 L 87.410004 100.309998 L 93.100006 86.73999 L 85.279999 88.839996 Z M 131.779999 116.460007 L 114.779999 119.820007 L 130.070007 131.779999 L 131.779999 116.460007 Z M 78.160004 75.410004 L 88.209991 82.130005 L 85.559998 73.01001 L 78.160004 75.410004 Z"/>
        <path id="path39" fill="#267a56" stroke="none" d="M 112.089996 289.230011 L 67.559998 275.170013 L 65.460007 281.790009 L 111.529999 295.200012 L 181.589996 274 L 181.299988 267.730011 L 112.089996 289.230011 Z"/>
        <path id="path40" fill="#232a38" stroke="none" d="M 127.5 61.75 C 127.5 63.594635 126.004639 65.089996 124.160004 65.089996 C 122.315369 65.089996 120.820007 63.594635 120.820007 61.75 C 120.820007 59.905365 122.315369 58.410004 124.160004 58.410004 C 126.004639 58.410004 127.5 59.905365 127.5 61.75 Z"/>
        <path id="path41" fill="#232a38" stroke="none" d="M 153.48999 55.850006 C 153.48999 57.694641 151.994629 59.190002 150.149994 59.190002 C 148.305359 59.190002 146.809998 57.694641 146.809998 55.850006 C 146.809998 54.005371 148.305359 52.51001 150.149994 52.51001 C 151.994629 52.51001 153.48999 54.005371 153.48999 55.850006 Z"/>
        <path id="path42" fill="#e8cab6" stroke="none" d="M 138.179993 44.959991 L 144.589996 54.080017 L 150.160004 79.169983 L 146.269989 81.130005 L 141.200012 81.130005 L 136.350006 56.359985 L 129.369995 46.51001 L 138.179993 44.959991 Z"/>
        <path id="path43" fill="#89909b" stroke="none" d="M 69.860001 36.839996 L 80.529999 70.669983 L 83.940002 69.450012 L 91.209991 73.649994 L 93.299988 47.01001 L 84.929993 42.100006 L 95.600006 21.76001 L 93.359985 18.209991 L 69.860001 36.839996 Z"/>
        <path id="path44" fill="#47ad82" stroke="none" d="M 126.339996 124.309998 L 119.519989 131.639999 L 100.130005 145.509995 L 136.100006 173.020004 L 160.019989 162.690002 L 126.339996 124.309998 Z"/>
        <path id="path45" fill="#84c8ab" stroke="none" d="M 90.609985 142.699997 L 100.130005 145.509995 L 128.130005 135 L 108.920013 121.779999 L 88.209991 118.059998 L 76.720001 130.630005 L 90.609985 142.699997 Z"/>
        <path id="path46" fill="#267a56" stroke="none" d="M 133.769989 166.869995 L 76.720001 130.630005 L 73.419998 134.25 L 132.440002 172.119995 L 154.179993 200.309998 L 166.029999 162.690002 L 133.769989 166.869995 Z M 126.339996 124.309998 L 89.190002 109.880005 L 88.209991 118.059998 L 128.130005 135 L 126.339996 124.309998 Z"/>
        <path id="path47" fill="#bbbfc6" stroke="none" d="M 141.200012 81.130005 L 122.01001 98.399994 L 133.769989 166.869995 L 155.309998 186.700012 L 156.959991 189.619995 L 156.209991 192.529999 L 154.179993 200.309998 L 165.970001 208.51001 L 158.109985 124.830002 L 146.910004 82.369995 L 141.200012 81.130005 Z"/>
        <path id="path48" fill="#eeeff1" stroke="none" d="M 168.23999 184.720001 L 178.299988 158.190002 L 166.809998 89.949997 L 150.160004 79.169983 L 146.910004 82.369995 L 165.970001 208.51001 L 172.450012 195.940002 L 169.130005 190.549988 L 167.309998 187.890015 L 168.23999 184.720001 Z"/>
        <path id="path49" fill="#446125" stroke="none" d="M 155.312012 186.712006 L 168.240997 184.730988 L 169.132996 190.553009 L 156.203003 192.53299 Z"/>
        <path id="path50" fill="#8b6651" stroke="none" d="M 155.899994 90.119995 L 148.589996 93.490005 L 137.049988 93.330002 L 135.23999 89.630005 L 148.029999 89.820007 L 156.570007 86.23999 L 155.899994 90.119995 Z"/>
        <path id="path51" fill="#89909b" stroke="none" d="M 150.160004 79.169983 L 141.200012 81.130005 L 147.279999 84.830017 L 150.160004 79.169983 Z M 123.230011 40.869995 L 124.279999 44.029999 L 112.970001 52.27002 L 111.51001 48.580017 L 123.230011 40.869995 Z M 139.769989 38.070007 L 141.019989 41.839996 L 152.809998 43.679993 L 153.600006 41.130005 L 139.769989 38.070007 Z"/>
        <path id="path52" fill="#446125" stroke="none" d="M 71.490005 169.289993 L 80.309998 191.619995 L 54.809998 202.100006 L 71.490005 169.289993 Z"/>
        <path id="path53" fill="#216a4b" stroke="none" d="M 56.020004 166.100006 L 62.889999 167.520004 L 54.809998 202.100006 L 44.960007 206.339996 L 56.020004 166.100006 Z"/>
        <path id="path54" fill="#c3987b" stroke="none" d="M 43.759995 154.389999 L 35.580002 156.690002 L 30.360001 168.720001 L 43.839996 177.5 L 50.789993 171 L 48.679993 160.199997 L 43.759995 154.389999 Z"/>
        <path id="path55" fill="#dfbda5" stroke="none" d="M 56.020004 166.100006 L 54 157.639999 L 44.490005 146.259995 L 41.330002 148.669998 L 50.789993 171 L 56.020004 166.100006 Z"/>
        <path id="path56" fill="#dfbda5" stroke="none" d="M 43.759995 154.389999 L 30.360001 140.910004 L 24.539993 150.289993 L 30.360001 168.720001 L 43.759995 154.389999 Z"/>
        <path id="path57" fill="#e6e97c" stroke="none" d="M 25.770004 76.220001 L 27.399994 63.890015 L 33.679993 73.429993 L 44.850006 70.640015 L 34.149994 79.47998 L 32.289993 91.580002 L 28.100006 82.27002 L 15.759995 81.809998 L 25.770004 76.220001 Z M 45.320007 87.050003 L 50.440002 81.22998 L 49.279999 90.070007 L 55.559998 95.419998 L 47.880005 93.330002 L 43.229996 99.380005 L 44.850006 91.699997 L 39.039993 86.350006 L 45.320007 87.050003 Z M 11.449997 102.990005 L 22.860001 101.830002 L 14.240005 108.580002 L 16.110001 120.210007 L 9.589996 112.070007 L 0.279999 116.490005 L 7.729996 106.020004 L 3.539993 93.679993 L 11.449997 102.990005 Z M 38.860001 30.899994 L 37.990005 38.410004 L 44.800003 41.200012 L 36.940002 42.080017 L 33.619995 48.359985 L 34.5 40.859985 L 28.389999 35.790009 L 35.369995 37.890015 L 38.860001 30.899994 Z"/>
        <path id="path58" fill="#d9e256" stroke="none" d="M 295.859985 76.820007 L 300.619995 72.549988 L 304.880005 78.619995 L 298.160004 82.399994 L 295.859985 76.820007 Z M 293.23999 87.649994 L 295.859985 86.660004 L 297.170013 89.449997 L 293.23999 90.440002 L 293.23999 87.649994 Z M 308.660004 82.559998 L 311.609985 78.619995 L 315.220001 80.919983 L 313.079987 85.51001 L 308.660004 82.559998 Z M 316.859985 89.449997 L 320.470001 88.789993 L 322.109985 91.580002 L 318.01001 93.880005 L 316.859985 89.449997 Z M 286.670013 75.669983 L 287.48999 72.390015 L 290.940002 72.880005 L 290.769989 77.799988 L 286.670013 75.669983 Z"/>
    </g>
</svg>
